<svg width="333" height="39" viewBox="0 0 333 39" fill="none" xmlns="http://www.w3.org/2000/svg">
<path d="M35.5247 9.68229C35.578 13.1448 33.7513 17.2017 29.3432 19.1475C33.212 20.8788 34.9855 24.5559 34.2331 28.5055C32.7815 36.1321 25.4723 38.404 17.8413 38.404H0L6.61002 0.541016H24.4534C31.7625 0.541016 35.4181 4.81451 35.5247 9.68229ZM7.89962 32.1847H18.971C22.0874 32.1847 26.9793 31.157 26.926 26.6132C26.8727 23.421 23.4323 22.0158 20.6912 22.0158H9.83506L7.89962 32.1847ZM10.9627 15.7407H21.8188C26.3334 15.7407 28.6441 13.4151 28.6441 10.8193C28.6441 8.2234 26.8173 6.70879 23.3237 6.70879H12.5742L10.9627 15.7428V15.7407Z" fill="white"/>
<path d="M35.7461 38.4061L42.3582 0.541016H49.3987L42.7887 38.4061H35.7481H35.7461Z" fill="white"/>
<path d="M86.0043 10.9803L70.8488 27.4242H69.4505L60.3679 10.9266L55.5314 38.4598H48.4375L55.0475 0.594727H63.2157L72.1364 16.8757L86.7567 0.594727H94.8716L88.2616 38.4577H81.1677L86.0043 10.9803Z" fill="white"/>
<path d="M121.859 31.2644H102.189L97.7277 38.404H89.8281L113.314 0.541016H121.053L131.319 38.4061H123.795L121.859 31.2664V31.2644ZM116.055 8.22133L106.22 24.6117H120.194L116.057 8.22133H116.055Z" fill="white"/>
<path d="M165.559 0.811333L144.063 18.9866L160.616 38.1358L160.563 38.4061H156.048L140.247 20.0699L137.022 38.4061H133.26L139.87 0.541016H143.632L140.676 17.5793L160.885 0.541016H165.562V0.811333H165.559Z" fill="white"/>
<path d="M192.016 29.6424H170.089L164.66 38.4061H160.629L184.117 0.541016H187.879L198.144 38.4061H194.329L192.018 29.6424H192.016ZM172.184 26.1799H191.102L185.513 4.59784L172.184 26.1799Z" fill="white"/>
<path d="M211.954 38.5134H207.761L198.41 0.541016H202.548L210.394 34.4566L230.281 0.541016H234.474L211.956 38.5134H211.954Z" fill="white"/>
<path d="M254.143 29.6424H232.216L226.787 38.4061H222.756L246.244 0.541016H250.006L260.271 38.4061H256.456L254.145 29.6424H254.143ZM234.311 26.1799H253.229L247.64 4.59784L234.311 26.1799Z" fill="white"/>
<path d="M293.171 33.2656C288.709 37.1057 283.551 39 278.499 39C267.159 39 261.945 31.8603 261.945 22.9894C261.945 11.2522 270.384 0 285.216 0C290.052 0 295.051 1.83857 297.63 5.73444L294.942 8.00635C292.416 4.97714 288.707 3.46254 284.676 3.46254C272.799 3.46254 265.759 12.9835 265.759 22.5024C265.759 29.8587 270.058 35.4838 279.087 35.4838C283.118 35.4838 287.633 33.8619 291.18 30.8327L293.169 33.2676L293.171 33.2656Z" fill="white"/>
<path d="M322.627 38.4061L325.583 21.6382H302.795L299.838 38.4061H296.076L302.688 0.541016H306.45L303.387 18.0663H326.176L329.239 0.541016H333.001L326.391 38.4061H322.629H322.627Z" fill="white"/>
</svg>
